<svg xmlns="http://www.w3.org/2000/svg" width="707.664" height="261.128" viewBox="0 0 187.2361 69.089996" id="svg2">xmlns:xlink=&quot;http://www.w3.org/1999/xlink&quot;<defs id="defs4"><style>@font-face{font-family:&apos;sintonyregular&apos;;src:url(sintony-regular-webfont.eot);src:url(sintony-regular-webfont.eot?#iefix) format(&apos;embedded-opentype&apos;),url(sintony-regular-webfont.woff2) format(&apos;woff2&apos;),url(sintony-regular-webfont.woff) format(&apos;woff&apos;),url(sintony-regular-webfont.ttf) format(&apos;truetype&apos;),url(sintony-regular-webfont.svg#sintonyregular) format(&apos;svg&apos;);font-weight:400;font-style:normal}</style><marker orient="auto" id="marker5568" overflow="visible"><path id="path5570" d="M-1.926-1.21L1.352-.005l-3.278 1.206a2.05 2.05 0 0 0 0-2.411z" fill="#ada7a7" fill-rule="evenodd" stroke="#ada7a7" stroke-width=".1875" stroke-linejoin="round"/></marker><marker orient="auto" id="Arrow1Mend" overflow="visible"><path id="path4912" d="M-4 0l-2 2 7-2-7-2 2 2z" fill="#ada7a7" fill-rule="evenodd" stroke="#ada7a7" stroke-width=".5332"/></marker><marker orient="auto" id="Arrow2Send" overflow="visible"><path id="path4936" d="M-1.926-1.21L1.352-.005l-3.278 1.206a2.05 2.05 0 0 0 0-2.411z" fill="#ada7a7" fill-rule="evenodd" stroke="#ada7a7" stroke-width=".1875" stroke-linejoin="round"/></marker><marker orient="auto" id="Arrow2Lend" overflow="visible"><path id="path4924" d="M-10.69-4.437L1.328-.017-10.69 4.401c1.92-2.61 1.909-6.18 0-8.84z" fill="#ada7a7" fill-rule="evenodd" stroke="#ada7a7" stroke-width=".6875" stroke-linejoin="round"/></marker><marker orient="auto" id="TriangleOutL" overflow="visible"><path id="path5045" d="M4.616 0l-6.92 4v-8l6.92 4z" fill="#ada7a7" fill-rule="evenodd" stroke="#ada7a7" stroke-width="1.0664"/></marker><marker orient="auto" id="Arrow1Lend" overflow="visible"><path id="path4906" d="M-10 0l-4 4L0 0l-14-4 4 4z" fill-rule="evenodd" stroke="#000" stroke-width="1.0664"/></marker><marker orient="auto" id="TriangleOutL-3" overflow="visible"><path id="path5045-8" d="M4.616 0l-6.92 4v-8l6.92 4z" fill="#ada7a7" fill-rule="evenodd" stroke="#ada7a7" stroke-width="1.0664"/></marker><marker orient="auto" id="TriangleOutL-3-0" overflow="visible"><path id="path5045-8-5" d="M4.616 0l-6.92 4v-8l6.92 4z" fill="#ada7a7" fill-rule="evenodd" stroke="#ada7a7" stroke-width="1.0664"/></marker><marker orient="auto" id="TriangleOutL-8" overflow="visible"><path id="path5045-0" d="M4.616 0l-6.92 4v-8l6.92 4z" fill="#ada7a7" fill-rule="evenodd" stroke="#ada7a7" stroke-width="1.0664"/></marker><marker orient="auto" id="TriangleOutL-3-0-7" overflow="visible"><path id="path5045-8-5-7" d="M4.616 0l-6.92 4v-8l6.92 4z" fill="#ada7a7" fill-rule="evenodd" stroke="#ada7a7" stroke-width="1.0664"/></marker><marker orient="auto" id="TriangleOutL-3-6" overflow="visible"><path id="path5045-8-9" d="M4.616 0l-6.92 4v-8l6.92 4z" fill="#ada7a7" fill-rule="evenodd" stroke="#ada7a7" stroke-width="1.0664"/></marker><marker orient="auto" id="TriangleOutL-3-8" overflow="visible"><path id="path5045-8-94" d="M4.616 0l-6.92 4v-8l6.92 4z" fill="#ada7a7" fill-rule="evenodd" stroke="#ada7a7" stroke-width="1.0664"/></marker><marker orient="auto" id="TriangleOutL-3-3" overflow="visible"><path id="path5045-8-0" d="M4.616 0l-6.92 4v-8l6.92 4z" fill="#ada7a7" fill-rule="evenodd" stroke="#ada7a7" stroke-width="1.0664"/></marker></defs><g id="layer1"><g id="g9136" transform="translate(-40.476 -14.534)"><text id="text4570-9-5-6" y="73.385" x="200.853" style="line-height:125%;text-align:center" font-family="sintonyregular" font-weight="400" font-size="4" letter-spacing="0" word-spacing="0" text-anchor="middle" stroke-width=".117"><tspan id="tspan4628-3" y="73.385" x="200.853">Ordne Wörter per</tspan><tspan id="tspan4678" y="79.213" x="200.853">Zufall zu Gedicht</tspan></text><text id="text4570-9-5-5-3" y="65.145" x="140.033" style="line-height:125%;text-align:center" font-weight="400" font-size="4" letter-spacing="0" word-spacing="0" text-anchor="middle" stroke-width=".117"><tspan id="tspan4653-7" style="text-align:end" y="65.145" x="140.033" font-family="sintonyregular" text-anchor="end">Versmaß</tspan></text><text id="text4570-9-5-5-3-5" y="54.863" x="139.794" style="line-height:125%;text-align:end" font-weight="400" font-size="4" letter-spacing="0" word-spacing="0" text-anchor="end" stroke-width=".117"><tspan id="tspan4653-7-3" style="text-align:end" y="54.863" x="139.794" font-family="sintonyregular">Reimschema</tspan></text><text id="text4570" y="22.25" x="67.354" style="line-height:125%;text-align:center" font-family="sintonyregular" font-weight="400" font-size="4" letter-spacing="0" word-spacing="0" text-anchor="middle" stroke-width=".117"><tspan id="tspan4574" y="22.25" x="67.354">Lese Nachrichten</tspan><tspan id="tspan4578" y="28.078" x="67.354">von Internetseite</tspan></text><rect ry="2.181" rx="2.181" y="14.817" x="40.759" height="17.432" width="53.029" id="rect4754" opacity=".98" fill="none" stroke="#ada7a7" stroke-width=".565" stroke-linejoin="round"/><text id="text4570-9" y="22.252" x="134.206" style="line-height:125%;text-align:center" font-family="sintonyregular" font-weight="400" font-size="4" letter-spacing="0" word-spacing="0" text-anchor="middle" stroke-width=".117"><tspan id="tspan4578-6" y="22.252" x="134.206">Finde meistbenutze</tspan><tspan id="tspan4603" y="28.08" x="134.206">Wörter in Nachrichten</tspan></text><rect ry="2.181" rx="2.181" y="14.817" x="107.579" height="17.432" width="53.029" id="rect4754-4" opacity=".98" fill="none" stroke="#ada7a7" stroke-width=".565" stroke-linejoin="round"/><text id="text4570-9-5" y="22.292" x="200.895" style="line-height:125%;text-align:center" font-family="sintonyregular" font-weight="400" font-size="4" letter-spacing="0" word-spacing="0" text-anchor="middle" stroke-width=".117"><tspan id="tspan4603-7" y="22.292" x="200.895">Finde Synonyme</tspan><tspan id="tspan4628" y="28.12" x="200.895">für Wörter</tspan></text><rect ry="2.181" rx="2.181" y="14.817" x="174.4" height="17.432" width="53.029" id="rect4754-4-9" opacity=".98" fill="none" stroke="#ada7a7" stroke-width=".565" stroke-linejoin="round"/><text id="text4570-3" y="56.637" x="67.354" style="line-height:125%;text-align:center" font-family="sintonyregular" font-weight="400" font-size="4" letter-spacing="0" word-spacing="0" text-anchor="middle" stroke-width=".117"><tspan id="tspan4578-1" y="56.637" x="67.354">Finde Betonung</tspan><tspan y="62.465" x="67.354" id="tspan4854">der Synonyme</tspan></text><rect ry="2.181" rx="2.181" y="49.657" x="40.759" height="17.432" width="53.029" id="rect4754-5" opacity=".98" fill="none" stroke="#ada7a7" stroke-width=".565" stroke-linejoin="round"/><rect ry="2.181" rx="2.181" y="65.91" x="174.4" height="17.432" width="53.029" id="rect4754-5-6" opacity=".98" fill="none" stroke="#ada7a7" stroke-width=".565" stroke-linejoin="round"/><path id="path4898" d="M93.716 23.533h10.406" fill="none" fill-rule="evenodd" stroke="#ada7a7" stroke-width=".565" marker-end="url(#TriangleOutL)"/><path id="path4898-6" d="M160.655 23.533h10.406" fill="none" fill-rule="evenodd" stroke="#ada7a7" stroke-width=".565" marker-end="url(#TriangleOutL-3)"/><path id="path4898-6-8" d="M67.273 42.873v3.455" fill="none" fill-rule="evenodd" stroke="#ada7a7" stroke-width=".565" marker-end="url(#TriangleOutL-3-0)"/><path d="M67.274 42.913a2.043 2.043 0 0 1 2.043-2.043" id="path6348" opacity=".98" fill="none" stroke="#ada7a7" stroke-width=".565" stroke-linejoin="round"/><path id="path4898-63" d="M69.312 40.873h129.576" fill="none" fill-rule="evenodd" stroke="#ada7a7" stroke-width=".57"/><path id="path4898-6-8-7" d="M200.915 38.87v-6.416" fill="none" fill-rule="evenodd" stroke="#ada7a7" stroke-width=".565"/><path d="M200.914 38.83a2.043 2.043 0 0 1-2.043 2.044" id="path6348-9" opacity=".98" fill="none" stroke="#ada7a7" stroke-width=".565" stroke-linejoin="round"/><path id="path4898-6-8-7-5" d="M67.314 73.503v-6.416" fill="none" fill-rule="evenodd" stroke="#ada7a7" stroke-width=".565"/><path d="M67.315 73.463a2.043 2.043 0 0 1 2.043 2.043" id="path6348-9-6" opacity=".98" fill="none" stroke="#ada7a7" stroke-width=".565" stroke-linejoin="round"/><path id="path4898-6-1" d="M69.326 75.516h101.518" fill="none" fill-rule="evenodd" stroke="#ada7a7" stroke-width=".585" marker-end="url(#TriangleOutL-3-6)"/><path d="M145.102 73.463a2.043 2.043 0 0 1 2.044 2.043" id="path6348-9-6-9" opacity=".98" fill="none" stroke="#ada7a7" stroke-width=".565" stroke-linejoin="round"/><path d="M145.106 54.924a2.043 2.043 0 0 1-2.043-2.043" id="path6348-9-6-9-9" opacity=".98" fill="none" stroke="#ada7a7" stroke-width=".565" stroke-linejoin="round"/><path id="path4898-6-7" d="M145.104 54.86v18.624" fill="none" fill-rule="evenodd" stroke="#ada7a7" stroke-width=".565"/><path d="M145.106 65.508a2.043 2.043 0 0 1-2.043-2.044" id="path6348-9-6-9-9-1" opacity=".98" fill="none" stroke="#ada7a7" stroke-width=".565" stroke-linejoin="round"/><path id="path4898-6-9" d="M140.875 52.882h2.195" fill="none" fill-rule="evenodd" stroke="#ada7a7" stroke-width=".565"/><path id="path4898-6-9-4" d="M140.87 63.466h2.195" fill="none" fill-rule="evenodd" stroke="#ada7a7" stroke-width=".565"/></g></g></svg>